<svg xmlns="http://www.w3.org/2000/svg" width="195.566" height="33.444" viewBox="0 0 195.566 33.444">
  <g id="ohmyfood" transform="translate(-0.36 -0.396)">
    <path id="Tracé_3771" data-name="Tracé 3771" d="M13.932,7.956q4.9,0,7.2,1.98a6.464,6.464,0,0,1,2.34,5.184,11.513,11.513,0,0,1-.288,2.412,12.241,12.241,0,0,1-2.556,5.184,12.871,12.871,0,0,1-4.608,3.42,14.408,14.408,0,0,1-5.868,1.188q-5,0-7.416-1.98A6.643,6.643,0,0,1,.36,20.016a12.156,12.156,0,0,1,.288-2.484A11.509,11.509,0,0,1,3.24,12.564,13.1,13.1,0,0,1,7.956,9.18,14.792,14.792,0,0,1,13.932,7.956Zm-.108,3.2q-.756,0-1.62,1.368a24.691,24.691,0,0,0-1.98,5.076A21.312,21.312,0,0,0,9.072,22.86a1.692,1.692,0,0,0,.252,1.08.924.924,0,0,0,.684.252q.756.072,1.548-1.3a27.619,27.619,0,0,0,2.052-5.328,19.133,19.133,0,0,0,1.116-5.076,1.618,1.618,0,0,0-.252-1.044A.758.758,0,0,0,13.824,11.16Z" fill="#fff"/>
    <path id="Tracé_3772" data-name="Tracé 3772" d="M44.99,22.032a1,1,0,0,0-.072.432.647.647,0,0,0,.108.4.488.488,0,0,0,.36.144.887.887,0,0,0,.72-.36q.324-.4.432-.4.18,0,.288.252a1.2,1.2,0,0,1,.108.54,3.3,3.3,0,0,1-.684,2.052,5.368,5.368,0,0,1-2.124,1.62,8.081,8.081,0,0,1-3.312.612,6.046,6.046,0,0,1-3.78-1.08,3.684,3.684,0,0,1-1.44-2.952,8.3,8.3,0,0,1,.648-2.988l1.98-5.184a2.237,2.237,0,0,0,.18-.756.858.858,0,0,0-.324-.72.977.977,0,0,0-.72-.288,2.138,2.138,0,0,0-1.4.648,4.405,4.405,0,0,0-1.116,2.016v-.072L32.57,23.256a3.173,3.173,0,0,0-.108.756,1.41,1.41,0,0,0,.18.756,2.5,2.5,0,0,0,.5.5,2.417,2.417,0,0,1,.36.432.437.437,0,0,1,.036.4,1.2,1.2,0,0,1-.72.684A4.741,4.741,0,0,1,31.166,27H22.958a2.523,2.523,0,0,1-1.368-.288.712.712,0,0,1-.288-.828,1.436,1.436,0,0,1,.756-.756,3.3,3.3,0,0,0,.9-.684,3.234,3.234,0,0,0,.612-1.26L29.042,5.22a1.777,1.777,0,0,0,.108-.54.961.961,0,0,0-.216-.648,2.5,2.5,0,0,0-.5-.5,3.838,3.838,0,0,1-.54-.5.665.665,0,0,1-.036-.576q.216-.828,2.268-1.44A14.91,14.91,0,0,1,34.406.4a4.817,4.817,0,0,1,3.06.792,2.6,2.6,0,0,1,1.008,2.16A4.864,4.864,0,0,1,38.222,4.9l-1.944,6.336A7.39,7.39,0,0,1,42.65,7.956a4.769,4.769,0,0,1,3.528,1.332,4.61,4.61,0,0,1,1.368,3.456,6.9,6.9,0,0,1-.36,2.2Z" fill="#fff"/>
    <path id="Tracé_3773" data-name="Tracé 3773" d="M82.716,22.032a1,1,0,0,0-.072.432.647.647,0,0,0,.108.4.488.488,0,0,0,.36.144.887.887,0,0,0,.72-.36q.324-.4.432-.4.18,0,.288.252a1.2,1.2,0,0,1,.108.54,3.3,3.3,0,0,1-.684,2.052,5.368,5.368,0,0,1-2.124,1.62,8.081,8.081,0,0,1-3.312.612,6.046,6.046,0,0,1-3.78-1.08,3.684,3.684,0,0,1-1.44-2.952,8.3,8.3,0,0,1,.648-2.988l1.98-5.184a2.237,2.237,0,0,0,.18-.756.858.858,0,0,0-.324-.72.977.977,0,0,0-.72-.288,1.994,1.994,0,0,0-1.26.54,4.531,4.531,0,0,0-1.152,1.692l-1.98,6.444a1,1,0,0,0-.072.432.647.647,0,0,0,.108.4.488.488,0,0,0,.36.144.887.887,0,0,0,.72-.36q.324-.4.432-.4.18,0,.288.252a1.2,1.2,0,0,1,.108.54,3.3,3.3,0,0,1-.684,2.052,5.368,5.368,0,0,1-2.124,1.62,8.081,8.081,0,0,1-3.312.612,6.046,6.046,0,0,1-3.78-1.08,3.684,3.684,0,0,1-1.44-2.952,8.3,8.3,0,0,1,.648-2.988l1.98-5.184a2.237,2.237,0,0,0,.18-.756.858.858,0,0,0-.324-.72.977.977,0,0,0-.72-.288,1.994,1.994,0,0,0-1.26.54,3.68,3.68,0,0,0-1.08,1.656l-2.376,7.7a2.211,2.211,0,0,0-.144.756,1.335,1.335,0,0,0,.18.72,3.366,3.366,0,0,0,.5.54,1.727,1.727,0,0,1,.36.4.528.528,0,0,1,.036.432,1.076,1.076,0,0,1-.684.684A4.881,4.881,0,0,1,56.9,27H48.7a2.331,2.331,0,0,1-1.332-.288.766.766,0,0,1-.324-.828,1.436,1.436,0,0,1,.756-.756,3.3,3.3,0,0,0,.9-.684,3.234,3.234,0,0,0,.612-1.26l3.2-10.4a1.4,1.4,0,0,0,.072-.5.931.931,0,0,0-.18-.612,3.174,3.174,0,0,0-.5-.54,2.457,2.457,0,0,1-.5-.5.665.665,0,0,1-.036-.576q.216-.828,2.268-1.44a14.141,14.141,0,0,1,4.284-.648,3.826,3.826,0,0,1,2.772.972,3.357,3.357,0,0,1,1.008,2.664,8.681,8.681,0,0,1,3.1-2.844,8.154,8.154,0,0,1,3.564-.792A4.727,4.727,0,0,1,71.737,9.18a4.463,4.463,0,0,1,1.476,3.132,9.315,9.315,0,0,1,3.312-3.384,7.851,7.851,0,0,1,3.852-.972A4.769,4.769,0,0,1,83.9,9.288a4.61,4.61,0,0,1,1.368,3.456,6.9,6.9,0,0,1-.36,2.2Z" fill="#fff"/>
    <path id="Tracé_3774" data-name="Tracé 3774" d="M104.932,7.956a2.952,2.952,0,0,1,2.52,1.3,5.528,5.528,0,0,1,.972,3.456,13.844,13.844,0,0,1-.684,4.1,26.559,26.559,0,0,1-4.284,8.352,24.564,24.564,0,0,1-6.732,6.3,14.109,14.109,0,0,1-7.56,2.376,7.5,7.5,0,0,1-3.24-.648,4.789,4.789,0,0,1-2.016-1.728,4.08,4.08,0,0,1-.72-2.3,4.468,4.468,0,0,1,.18-1.188,2.938,2.938,0,0,1,1.08-1.548,3.015,3.015,0,0,1,1.8-.54A3.529,3.529,0,0,1,88.948,27a5.635,5.635,0,0,1,1.368,3.132,6.48,6.48,0,0,0,4.248-1.98,5.01,5.01,0,0,1-2.736-1.224,5.531,5.531,0,0,1-1.188-2.88l-1.44-8.82a1.977,1.977,0,0,0-.324-.936.564.564,0,0,0-.5-.288,1.142,1.142,0,0,0-.612.252.983.983,0,0,1-.468.252Q87,14.508,87,13.9a3.63,3.63,0,0,1,.18-1.08A7.066,7.066,0,0,1,89.6,9.36a6.3,6.3,0,0,1,4.1-1.44,4.048,4.048,0,0,1,3.384,1.368,8.1,8.1,0,0,1,1.44,4.212l1.08,7.92q.108.9.648.9.648,0,1.512-1.152a14.821,14.821,0,0,0,1.692-3.348,6.772,6.772,0,0,1-1.656-2.232,6.417,6.417,0,0,1-.576-2.7,6.6,6.6,0,0,1,.288-2.016,4.224,4.224,0,0,1,1.332-2.16A3.241,3.241,0,0,1,104.932,7.956Z" fill="#fff"/>
    <path id="Tracé_3775" data-name="Tracé 3775" d="M122.864.4a11.093,11.093,0,0,1,5.76,1.188,3.322,3.322,0,0,1,1.944,2.844,2.4,2.4,0,0,1-1.152,2.124,5.376,5.376,0,0,1-2.952.72,3.834,3.834,0,0,1-2.628-.828,2.63,2.63,0,0,1-.936-2.052,3.226,3.226,0,0,1,.468-1.584,2.916,2.916,0,0,0-1.8.54,3.26,3.26,0,0,0-1.116,1.764,5.629,5.629,0,0,0-.216,1.476,2.76,2.76,0,0,0,.288,1.368,1.034,1.034,0,0,0,.9.468h2.124q1.872,0,1.872,1.152a1.969,1.969,0,0,1-.072.432,1.891,1.891,0,0,1-.9,1.188,3.886,3.886,0,0,1-1.98.4h-1.08l-3.564,11.664a3.173,3.173,0,0,0-.108.756,1.41,1.41,0,0,0,.18.756,2.5,2.5,0,0,0,.5.5,2.416,2.416,0,0,1,.36.432.437.437,0,0,1,.036.4,1.2,1.2,0,0,1-.72.684A4.741,4.741,0,0,1,116.42,27h-8.208a2.523,2.523,0,0,1-1.368-.288.712.712,0,0,1-.288-.828,1.436,1.436,0,0,1,.756-.756,3.3,3.3,0,0,0,.9-.684,3.234,3.234,0,0,0,.612-1.26l2.808-9.216a3.506,3.506,0,0,0,.18-1.116,1.718,1.718,0,0,0-.324-1.116,4.562,4.562,0,0,0-.9-.936q-.4-.324-.612-.54a.966.966,0,0,1-.18-.576.964.964,0,0,1,.468-.972,4.789,4.789,0,0,1,2.016-.288h.9a6.649,6.649,0,0,1-.252-1.8,5.911,5.911,0,0,1,.324-1.872,6.1,6.1,0,0,1,2.916-3.1A14.114,14.114,0,0,1,122.864.4Z" fill="#fff"/>
    <path id="Tracé_3776" data-name="Tracé 3776" d="M137.084,7.956q4.9,0,7.2,1.98a6.464,6.464,0,0,1,2.34,5.184,11.513,11.513,0,0,1-.288,2.412,12.241,12.241,0,0,1-2.556,5.184,12.871,12.871,0,0,1-4.608,3.42,14.408,14.408,0,0,1-5.868,1.188q-5,0-7.416-1.98a6.643,6.643,0,0,1-2.376-5.328,12.156,12.156,0,0,1,.288-2.484,11.509,11.509,0,0,1,2.592-4.968,13.1,13.1,0,0,1,4.716-3.384A14.792,14.792,0,0,1,137.084,7.956Zm-.108,3.2q-.756,0-1.62,1.368a24.69,24.69,0,0,0-1.98,5.076,21.312,21.312,0,0,0-1.152,5.256,1.692,1.692,0,0,0,.252,1.08.924.924,0,0,0,.684.252q.756.072,1.548-1.3a27.619,27.619,0,0,0,2.052-5.328,19.133,19.133,0,0,0,1.116-5.076,1.618,1.618,0,0,0-.252-1.044A.758.758,0,0,0,136.976,11.16Z" fill="#fff"/>
    <path id="Tracé_3777" data-name="Tracé 3777" d="M160.709,7.956q4.9,0,7.2,1.98a6.464,6.464,0,0,1,2.34,5.184,11.513,11.513,0,0,1-.288,2.412,12.241,12.241,0,0,1-2.556,5.184,12.871,12.871,0,0,1-4.608,3.42,14.408,14.408,0,0,1-5.868,1.188q-5,0-7.416-1.98a6.643,6.643,0,0,1-2.376-5.328,12.156,12.156,0,0,1,.288-2.484,11.509,11.509,0,0,1,2.592-4.968,13.1,13.1,0,0,1,4.716-3.384A14.792,14.792,0,0,1,160.709,7.956Zm-.108,3.2q-.756,0-1.62,1.368A24.69,24.69,0,0,0,157,17.6a21.312,21.312,0,0,0-1.152,5.256,1.692,1.692,0,0,0,.252,1.08.924.924,0,0,0,.684.252q.756.072,1.548-1.3a27.619,27.619,0,0,0,2.052-5.328,19.133,19.133,0,0,0,1.116-5.076,1.618,1.618,0,0,0-.252-1.044A.758.758,0,0,0,160.6,11.16Z" fill="#fff"/>
    <path id="Tracé_3778" data-name="Tracé 3778" d="M190.526,21.816a1.985,1.985,0,0,0-.072.4.535.535,0,0,0,.144.4.488.488,0,0,0,.36.144.887.887,0,0,0,.72-.36q.324-.4.432-.4.18,0,.288.252a1.45,1.45,0,0,1,.108.576,3.031,3.031,0,0,1-.756,1.98A5.684,5.684,0,0,1,189.7,26.46a6.191,6.191,0,0,1-2.808.648,6.771,6.771,0,0,1-3.132-.684,3.822,3.822,0,0,1-1.836-1.8A6.3,6.3,0,0,1,179.69,26.5a6.021,6.021,0,0,1-2.664.612,6.108,6.108,0,0,1-3.1-.828,6.253,6.253,0,0,1-2.268-2.34,7.286,7.286,0,0,1-.828-3.492,15.574,15.574,0,0,1,1.224-6.156,11.787,11.787,0,0,1,3.492-4.68,7.867,7.867,0,0,1,5.076-1.8,8.374,8.374,0,0,1,2.628.36,6.289,6.289,0,0,1,2.016,1.08l1.224-4.032a1.777,1.777,0,0,0,.108-.54.961.961,0,0,0-.216-.648,2.5,2.5,0,0,0-.5-.5,3.838,3.838,0,0,1-.54-.5.665.665,0,0,1-.036-.576q.216-.828,2.268-1.44A14.91,14.91,0,0,1,191.858.4a4.817,4.817,0,0,1,3.06.792,2.6,2.6,0,0,1,1.008,2.16,4.864,4.864,0,0,1-.252,1.548ZM184.514,11.7a1.874,1.874,0,0,0-1.26-.5q-1.044,0-2.052,1.548a13.444,13.444,0,0,0-1.62,3.744,13.841,13.841,0,0,0-.576,3.96q0,1.98,1.3,1.98a1.025,1.025,0,0,0,.792-.36,4.086,4.086,0,0,0,.612-1.26Z" fill="#fff"/>
  </g>
</svg>
